<?xml version="1.0" encoding="UTF-8"?>
<svg id="Layer_1" data-name="Layer 1" xmlns="http://www.w3.org/2000/svg" xmlns:xlink="http://www.w3.org/1999/xlink" viewBox="0 0 32 32">
  <defs>
    <style>
      .cls-1 {
        fill: #fff;
      }

      .cls-2 {
        fill: url(#linear-gradient);
        filter: url(#drop-shadow-1);
      }
    </style>
    <linearGradient id="linear-gradient" x1="-.04" y1="16" x2="36.74" y2="16" gradientUnits="userSpaceOnUse">
      <stop offset="0" stop-color="#bdd631"/>
      <stop offset="1" stop-color="#02ae4d"/>
    </linearGradient>
    <filter id="drop-shadow-1" x="4" y="4" width="24.32" height="24.63" filterUnits="userSpaceOnUse">
      <feOffset dx=".31" dy=".62"/>
      <feGaussianBlur result="blur" stdDeviation="0"/>
      <feFlood flood-color="#205f30" flood-opacity="1"/>
      <feComposite in2="blur" operator="in"/>
      <feComposite in="SourceGraphic"/>
    </filter>
  </defs>
  <rect class="cls-2" x="4" y="4" width="24.01" height="24.01" rx="4.32" ry="4.32"/>
  <g>
    <path class="cls-1" d="M10.13,23.9v-15.57h5.57c4.7,0,7.57,2.92,7.57,7.77s-2.87,7.8-7.62,7.8h-5.52ZM15.52,21.08c2.93,0,4.47-1.51,4.47-4.98s-1.54-4.95-4.46-4.95h-2.1v9.93h2.09Z"/>
    <path class="cls-1" d="M27.49,7.91c-.13-.29-.39-.52-.72-.61l-3.92-1.04c-.59-.16-1.19.19-1.34.78l-1.04,3.92c-.16.59.19,1.19.78,1.34l3.92,1.04c.59.16,1.19-.19,1.34-.78l.65-2.43.85.23v-1.56l-.51-.89ZM25.59,9.73c-.21.06-.43.11-.64.16-.11.03-.13.08-.07.17.13.22.26.44.38.66,0,.01.01.02.02.04l.34.59s0,.05-.02.06l-1.03.6s-.05,0-.06-.02l-.69-1.19s0,0,0,0c-.02-.03-.03-.06-.05-.09-.06-.1-.1-.1-.18-.02-.16.17-.32.34-.49.5-.13.13-.31.16-.48.08-.15-.07-.24-.22-.23-.4,0-.09,0-.19.01-.28.04-.87.08-1.74.12-2.6.01-.26.27-.45.56-.37.13.06.28.14.43.22.72.37,1.43.74,2.15,1.11.17.09.27.25.25.42-.02.2-.14.33-.34.38Z"/>
  </g>
</svg>