<?xml version="1.0" encoding="UTF-8"?>
<svg version="1.1" xmlns="http://www.w3.org/2000/svg" width="1333" height="357">
<path d="M0 0 C439.89 0 879.78 0 1333 0 C1333 117.81 1333 235.62 1333 357 C893.11 357 453.22 357 0 357 C0 239.19 0 121.38 0 0 Z " fill="#FEFEFE" transform="translate(0,0)"/>
<path d="M0 0 C0.64211223 -0.00380567 1.28422446 -0.00761134 1.94579464 -0.01153234 C4.10616511 -0.02187204 6.266274 -0.01793765 8.42666245 -0.01409245 C9.98771508 -0.01854357 11.54876545 -0.0238572 13.1098125 -0.02996117 C17.40654402 -0.04416678 21.70320329 -0.04580398 25.99995494 -0.04536426 C30.63131637 -0.04701022 35.26264784 -0.0600726 39.89399338 -0.07155704 C50.02413545 -0.09442348 60.15425659 -0.10232943 70.28442097 -0.10738349 C76.60833486 -0.11063861 82.93224266 -0.11715998 89.25615311 -0.12438488 C106.76129714 -0.14395299 124.26643551 -0.16035595 141.77159119 -0.16326141 C142.89216287 -0.16344898 144.01273455 -0.16363655 145.16726296 -0.16382981 C147.43899171 -0.16419606 149.71072045 -0.16455976 151.9824492 -0.16492092 C153.11015713 -0.16510373 154.23786505 -0.16528654 155.39974594 -0.16547489 C156.52882845 -0.16565544 157.65791096 -0.16583599 158.82120809 -0.16602201 C177.11910522 -0.16956414 195.4168847 -0.19658807 213.71474102 -0.23397278 C232.4957187 -0.27203786 251.27663797 -0.29141876 270.0576551 -0.29172093 C280.60460805 -0.2923059 291.15142068 -0.30082388 301.69833755 -0.32971859 C310.67880221 -0.3542084 319.65907536 -0.3615316 328.63956437 -0.34647106 C333.22187636 -0.33929232 337.80381 -0.34020103 342.38607979 -0.36288166 C346.58209006 -0.38345151 350.77743061 -0.38089028 354.97343346 -0.36000682 C356.49027489 -0.35650807 358.00716443 -0.36143835 359.52394274 -0.37571125 C367.61320505 -0.4469172 374.31908001 -0.41758418 380.61117172 5.26006222 C382.79867172 7.44756222 382.79867172 7.44756222 384.61117172 10.26006222 C385.22921126 11.20568681 385.22921126 11.20568681 385.85973644 12.17041492 C390.33507556 19.8847889 390.3150152 27.30260364 390.24227524 35.955863 C390.24742228 37.52070073 390.25470946 39.08553266 390.26395798 40.65035152 C390.28237749 44.87352336 390.26959502 49.09605899 390.24986768 53.31920385 C390.23340706 57.75171635 390.24230407 62.18419089 390.24738693 66.61672115 C390.2518987 74.05604297 390.23609278 81.49511259 390.20809555 88.93437862 C390.17602418 97.52215556 390.17607149 106.10947841 390.19331032 114.69728768 C390.20919818 122.97868556 390.20242886 131.25991773 390.18537331 139.5413084 C390.17851997 143.057093 390.17951747 146.57274409 390.18691826 150.08852673 C390.19460476 154.2305196 390.18237848 158.37199829 390.15506935 162.51390362 C390.14821002 164.02956523 390.14806115 165.5452751 390.15528488 167.06093502 C390.22497349 183.59312646 390.22497349 183.59312646 383.57601547 190.31865597 C382.90699203 190.77369503 382.2379686 191.22873409 381.54867172 191.69756222 C380.87707016 192.17064816 380.2054686 192.64373409 379.51351547 193.13115597 C375.76296724 195.35684065 372.62986835 195.38837062 368.36100864 195.39707661 C366.38436402 195.40468842 366.38436402 195.40468842 364.36778718 195.41245401 C362.89649129 195.41305571 361.42519535 195.41355478 359.95389938 195.41396236 C358.3978361 195.41797647 356.84177387 195.4224146 355.2857129 195.42724192 C350.9981417 195.43921902 346.71058177 195.4448585 342.42299712 195.44942307 C337.80321425 195.45537482 333.18344488 195.46698569 328.56367111 195.47771358 C317.40127652 195.50224675 306.23887746 195.51686575 295.07646421 195.52977365 C291.92461392 195.53348481 288.77276407 195.5374581 285.62091422 195.54152632 C266.05529229 195.5667612 246.48966968 195.58881791 226.92403507 195.60125446 C222.39111771 195.60418424 217.85820036 195.60714589 213.32528305 195.61015987 C212.19862565 195.61090592 211.07196826 195.61165198 209.91116973 195.61242063 C191.65524665 195.62507741 173.3994209 195.65830435 155.14354334 195.69996171 C136.40780347 195.7423642 117.67211346 195.76594752 98.93632573 195.77117503 C88.41394246 195.77459097 77.89171131 195.78636784 67.36937523 195.81927776 C58.40902318 195.84725621 49.44885442 195.85828727 40.48846207 195.8470823 C35.91627702 195.84189008 31.34447595 195.84481893 26.7723465 195.86954784 C22.58555771 195.89200369 18.39942954 195.89132931 14.21262946 195.87234397 C12.69911881 195.8695388 11.18556372 195.87517133 9.67212466 195.89015691 C-0.55813571 195.98524897 -6.72014326 194.82264076 -14.13882828 187.57256222 C-20.70152051 178.78862322 -20.96464722 169.28703952 -20.89053726 158.74785519 C-20.89432703 157.20272487 -20.89983246 155.65759796 -20.90690994 154.11247921 C-20.9207939 149.9430993 -20.90974592 145.7741353 -20.89319873 141.60477877 C-20.8792805 137.22832467 -20.8858158 132.85189305 -20.88933182 128.47542477 C-20.89202804 121.13029485 -20.87860714 113.7853289 -20.85538101 106.440238 C-20.82875515 97.96158274 -20.82703267 89.48320115 -20.83876938 81.00451839 C-20.84956555 72.82779416 -20.84334694 64.65116844 -20.8292141 56.47445202 C-20.82347223 53.00334614 -20.82352271 49.53231276 -20.8282795 46.06120586 C-20.83306816 41.97182502 -20.82286984 37.88274215 -20.80132484 33.79341793 C-20.79578318 32.29710171 -20.79526748 30.80075669 -20.80027771 29.30443859 C-20.84970571 12.41953903 -20.84970571 12.41953903 -15.70523453 6.23662472 C-15.12644547 5.79060909 -14.5476564 5.34459347 -13.95132828 4.88506222 C-13.37511734 4.42357784 -12.7989064 3.96209347 -12.20523453 3.48662472 C-8.01030246 0.6539179 -5.11748647 0.00871602 0 0 Z " fill="#85C340" transform="translate(687.3888282775879,85.7399377822876)"/>
<path d="M0 0 C63.20070755 0 63.20070755 0 78.9609375 14.7578125 C88.98112163 25.77617589 92.39932822 39.3788688 92.25 53.875 C92.23658569 55.33679688 92.23658569 55.33679688 92.22290039 56.828125 C91.99466502 70.94324105 88.88091998 84.87159997 78.77734375 95.484375 C56.47700761 114.50092538 28.09237459 110 0 110 C0 73.7 0 37.4 0 0 Z " fill="#454545" transform="translate(253,119)"/>
<path d="M0 0 C7.59 0 15.18 0 23 0 C23.33 19.14 23.66 38.28 24 58 C30.95200692 50.33047833 30.95200692 50.33047833 37.5625 42.4375 C39.02429885 40.61096382 40.5063246 38.80056216 42 37 C42.4645459 36.23324951 42.9290918 35.46649902 43.40771484 34.67651367 C45.71143685 31.34041696 47.78805529 28.54523957 51.89309692 27.53335571 C57.42102913 26.87046118 62.95376999 27.18075003 68.5 27.4375 C70.19781045 27.48269934 71.89573657 27.5237544 73.59375 27.56054688 C77.7343692 27.65152728 81.85880101 27.82745004 86 28 C86 21.4 86 14.8 86 8 C93.26 8 100.52 8 108 8 C108 14.6 108 21.2 108 28 C112.95 28 117.9 28 123 28 C123 33.28 123 38.56 123 44 C118.05 44 113.1 44 108 44 C108.09357049 50.05089175 108.19967313 56.10138507 108.31738281 62.15185547 C108.35565995 64.21006249 108.39051504 66.26833612 108.421875 68.32666016 C108.46755278 71.28572388 108.52554302 74.24432957 108.5859375 77.203125 C108.59748871 78.12305237 108.60903992 79.04297974 108.62094116 79.99078369 C108.64081085 80.8513739 108.66068054 81.71196411 108.68115234 82.59863281 C108.69447601 83.35364075 108.70779968 84.10864868 108.7215271 84.88653564 C109.04253456 87.32281516 109.66452768 88.93952847 111 91 C113.64787088 91.70373017 113.64787088 91.70373017 116.625 91.75 C117.62789062 91.80671875 118.63078125 91.8634375 119.6640625 91.921875 C120.43492187 91.94765625 121.20578125 91.9734375 122 92 C122.50744423 93.89385437 123.00564574 95.79018666 123.5 97.6875 C123.7784375 98.74324219 124.056875 99.79898438 124.34375 100.88671875 C124.9391715 103.71142672 125.12786492 106.12836708 125 109 C116.8957304 112.0873408 107.00088898 112.68065461 98.9375 109.25 C92.5887181 105.87573999 89.15118694 102.41491626 86 96 C85.17662659 92.68716893 84.87708919 89.61662381 84.88647461 86.2097168 C84.88658791 84.82885139 84.88658791 84.82885139 84.88670349 83.42008972 C84.89186478 82.4397023 84.89702606 81.45931488 84.90234375 80.44921875 C84.9037587 79.43527542 84.90517365 78.42133209 84.90663147 77.37666321 C84.91221672 74.14691179 84.92476655 70.91723038 84.9375 67.6875 C84.9425169 65.49414163 84.94707948 63.30078217 84.95117188 61.10742188 C84.96218133 55.73825439 84.97943586 50.36913905 85 45 C81.37 45 77.74 45 74 45 C73.67 40.71 73.34 36.42 73 32 C72.27296875 32.84820312 71.5459375 33.69640625 70.796875 34.5703125 C70.31653809 35.13057129 69.83620117 35.69083008 69.34130859 36.26806641 C68.27078653 37.51728254 67.20080892 38.76696544 66.13134766 40.01708984 C63.30055057 43.32451338 60.46128369 46.62378742 57.6015625 49.90625 C57.06047852 50.52999512 56.51939453 51.15374023 55.96191406 51.79638672 C54.92292616 52.99362048 53.88072363 54.18807387 52.83496094 55.37939453 C50.47177308 58.10967173 48.39064037 60.64610264 47 64 C47.54785156 64.75539063 48.09570312 65.51078125 48.66015625 66.2890625 C54.81080891 74.81574248 60.76282049 83.46795322 66.64477539 92.18212891 C69.94125742 97.04963509 73.3021328 101.810476 76.94238281 106.42822266 C78 108 78 108 78 110 C69.11248373 111.52156775 59.71444271 112.84658389 51 110 C44.21124673 104.50075065 40.33424265 96.5103179 36.47753906 88.81982422 C35.16517646 86.31523267 33.76723255 84.11346862 32.0859375 81.84765625 C30 79 30 79 30 77 C29.195625 77.804375 28.39125 78.60875 27.5625 79.4375 C26.375 80.625 25.1875 81.8125 24 83 C23.84174742 84.99782126 23.74880829 87.00088834 23.68359375 89.00390625 C23.64169922 90.21884766 23.59980469 91.43378906 23.55664062 92.68554688 C23.51732422 93.96494141 23.47800781 95.24433594 23.4375 96.5625 C23.39431641 97.84576172 23.35113281 99.12902344 23.30664062 100.45117188 C23.20015281 103.63397445 23.09953579 106.81697243 23 110 C15.41 110 7.82 110 0 110 C0 73.7 0 37.4 0 0 Z " fill="#464646" transform="translate(520,119)"/>
<path d="M0 0 C5.64740515 0.77447007 11.13693398 2.23620823 16.64941406 3.65869141 C17.89851563 3.96742187 19.14761719 4.27615234 20.43457031 4.59423828 C34.4856978 8.15575672 34.4856978 8.15575672 38.20410156 12.15087891 C42.05444196 18.81976914 42.05118334 24.77241986 41.52441406 32.34619141 C39.21441406 32.01619141 36.90441406 31.68619141 34.52441406 31.34619141 C34.41484375 32.02423828 34.30527344 32.70228516 34.19238281 33.40087891 C31.51177258 49.13584303 31.51177258 49.13584303 27.89941406 54.97119141 C21.39238035 58.73842145 12.88422854 55.65019108 6.13574219 53.85791016 C4.92337891 53.52404297 3.71101563 53.19017578 2.46191406 52.84619141 C1.21474609 52.51232422 -0.03242187 52.17845703 -1.31738281 51.83447266 C-4.3729486 51.01497225 -7.42537 50.18534353 -10.47558594 49.34619141 C-10.14816406 49.94947266 -9.82074219 50.55275391 -9.48339844 51.17431641 C-8.30135566 53.7216644 -8.3213704 55.57031178 -8.47558594 58.34619141 C-13.13095949 59.26711421 -17.62244027 59.46825138 -22.35058594 59.40869141 C-23.03894531 59.40417969 -23.72730469 59.39966797 -24.43652344 59.39501953 C-26.11624929 59.38335477 -27.79592969 59.36542411 -29.47558594 59.34619141 C-29.75402344 58.38455078 -30.03246094 57.42291016 -30.31933594 56.43212891 C-31.16117919 53.16558183 -31.16117919 53.16558183 -33.97558594 51.97119141 C-39.92983221 50.90793314 -45.22744398 50.63625184 -51.03808594 52.47119141 C-53.77656719 54.18782889 -53.77656719 54.18782889 -54.35058594 57.53369141 C-54.39183594 58.46181641 -54.43308594 59.38994141 -54.47558594 60.34619141 C-50.86911223 63.58072676 -48.15250547 64.97490243 -43.41308594 65.90869141 C-42.27226563 66.14845703 -41.13144531 66.38822266 -39.95605469 66.63525391 C-38.8075 66.86986328 -37.65894531 67.10447266 -36.47558594 67.34619141 C-25.43272341 69.80016086 -14.5070503 72.3021413 -7.60058594 81.97119141 C-5.30938364 88.84479829 -5.62944588 96.01205485 -8.58105469 102.64306641 C-12.60447634 110.30338013 -20.47149974 114.5648973 -28.47558594 117.34619141 C-30.93261719 117.76025391 -30.93261719 117.76025391 -33.28808594 117.97119141 C-34.47337891 118.08333984 -34.47337891 118.08333984 -35.68261719 118.19775391 C-36.27429688 118.24673828 -36.86597656 118.29572266 -37.47558594 118.34619141 C-37.47558594 119.33619141 -37.47558594 120.32619141 -37.47558594 121.34619141 C-36.75371094 121.42869141 -36.03183594 121.51119141 -35.28808594 121.59619141 C-31.23852222 122.67607506 -28.6678343 124.75652692 -26.16308594 128.09619141 C-24.6097524 133.17982844 -24.76030198 136.96860749 -27.16308594 141.59619141 C-31.69037004 146.97998871 -35.98439638 149.93907799 -43.02636719 150.76025391 C-44.88841797 150.86466797 -44.88841797 150.86466797 -46.78808594 150.97119141 C-48.66947266 151.08333984 -48.66947266 151.08333984 -50.58886719 151.19775391 C-51.54148437 151.24673828 -52.49410156 151.29572266 -53.47558594 151.34619141 C-53.47558594 148.04619141 -53.47558594 144.74619141 -53.47558594 141.34619141 C-52.6209375 141.14123047 -51.76628906 140.93626953 -50.88574219 140.72509766 C-49.22865234 140.32097656 -49.22865234 140.32097656 -47.53808594 139.90869141 C-46.4359375 139.64185547 -45.33378906 139.37501953 -44.19824219 139.10009766 C-41.5813734 138.61623416 -41.5813734 138.61623416 -40.47558594 137.34619141 C-40.43477811 135.34660777 -40.43304237 133.34573887 -40.47558594 131.34619141 C-43.44558594 130.02619141 -46.41558594 128.70619141 -49.47558594 127.34619141 C-49.14558594 124.37619141 -48.81558594 121.40619141 -48.47558594 118.34619141 C-49.61833984 118.21664062 -49.61833984 118.21664062 -50.78417969 118.08447266 C-60.60146481 116.74853748 -67.84827635 113.94810534 -74.47558594 106.34619141 C-75.31089844 105.47994141 -75.31089844 105.47994141 -76.16308594 104.59619141 C-78.20112818 101.10240471 -78.75828142 97.29558568 -79.47558594 93.34619141 C-72.25102646 92.19026189 -64.75135219 91.34900517 -57.47558594 92.34619141 C-54.97558594 95.15869141 -54.97558594 95.15869141 -53.47558594 98.34619141 C-48.65818762 101.70716698 -44.15543727 102.04509859 -38.47558594 101.34619141 C-35.50541037 100.7322445 -34.12119454 100.05481363 -31.47558594 98.34619141 C-30.15009762 94.90282367 -30.15009762 94.90282367 -30.47558594 91.34619141 C-34.594648 86.10603906 -42.02184061 85.37972584 -48.2175293 84.37475586 C-58.10795519 82.74559362 -67.7582897 80.43908201 -74.16308594 72.09619141 C-78.17743682 65.985852 -78.06213852 60.58884063 -77.47558594 53.34619141 C-75.5287972 45.7574353 -69.77203848 40.98477367 -63.31933594 37.02197266 C-52.47766136 32.00593815 -35.73307379 32.2952804 -24.60058594 36.28369141 C-20.86042559 37.96135176 -20.86042559 37.96135176 -19.47558594 39.34619141 C-18.36975644 35.57584374 -17.26623646 31.80482369 -16.16308594 28.03369141 C-15.69999023 26.45491211 -15.69999023 26.45491211 -15.22753906 24.84423828 C-14.92138672 23.796875 -14.61523438 22.74951172 -14.29980469 21.67041016 C-13.99091309 20.62030762 -13.68202148 19.57020508 -13.36376953 18.48828125 C-12.77780199 16.41532845 -12.22770115 14.33185642 -11.71630859 12.23925781 C-11.35931885 10.78592041 -11.35931885 10.78592041 -10.99511719 9.30322266 C-10.79635986 8.44317627 -10.59760254 7.58312988 -10.39282227 6.69702148 C-8.38985282 1.56351262 -5.47461777 -0.28780413 0 0 Z " fill="#FCFDFC" transform="translate(1032.4755859375,111.65380859375)"/>
<path d="M0 0 C7.22614295 4.70512523 11.70455849 10.95618599 14.27734375 19.13671875 C14.6875 21.375 14.6875 21.375 14.6875 27.375 C7.4275 27.375 0.1675 27.375 -7.3125 27.375 C-8.3025 25.065 -9.2925 22.755 -10.3125 20.375 C-13.66861904 16.23578652 -17.08005193 14.62082655 -22.36328125 14.0390625 C-29.07616057 13.95866874 -34.91647103 13.97449509 -40.3125 18.375 C-42.36147874 21.32552938 -42.48042244 23.86970386 -42.375 27.375 C-41.73966123 30.87979286 -41.30481618 31.38193649 -38.4609375 33.94921875 C-33.67371831 37.14313725 -28.43293136 38.02697101 -22.875 39.1875 C-9.82381757 42.205338 3.676015 45.96769701 12.26953125 57.02734375 C16.37698813 63.82784398 17.78748325 71.51623078 16.6875 79.375 C14.29303072 87.96161835 10.53799141 94.82468963 2.9375 99.625 C-10.65946658 107.20131867 -27.67069248 108.58866054 -42.8125 105.25 C-52.01390249 102.51375998 -60.08283039 97.56460951 -65.3125 89.375 C-68.46618605 82.8355038 -70.3125 77.69568749 -70.3125 70.375 C-62.7225 70.375 -55.1325 70.375 -47.3125 70.375 C-46.3225 73.345 -45.3325 76.315 -44.3125 79.375 C-42.01181981 81.86710521 -42.01181981 81.86710521 -39.3125 83.375 C-38.76980469 83.72949219 -38.22710938 84.08398438 -37.66796875 84.44921875 C-34.19041423 85.81601879 -30.74701805 85.75756902 -27.0625 85.75 C-25.92059204 85.74867065 -25.92059204 85.74867065 -24.75561523 85.74731445 C-18.9772705 85.62516251 -15.10323941 84.79695672 -10.3125 81.375 C-8.27218245 78.31452368 -7.99656476 77.44004006 -7.9375 73.9375 C-7.90914062 73.17566406 -7.88078125 72.41382813 -7.8515625 71.62890625 C-8.49796408 68.46811209 -9.82079736 67.38010751 -12.3125 65.375 C-19.59658672 61.60930702 -27.50884391 59.78695372 -35.4375 57.9375 C-46.13571193 55.40027613 -56.69424234 51.74487021 -63.3125 42.375 C-66.94654021 35.44220305 -68.69694487 28.14506268 -67.3125 20.375 C-64.03304923 10.62327468 -58.43358534 3.45479136 -49.20703125 -1.1875 C-33.65460821 -7.85553034 -15.14972466 -8.16452227 0 0 Z " fill="#FDFEFB" transform="translate(768.3125,123.625)"/>
<path d="M0 0 C0.97090576 0.00902344 1.94181152 0.01804688 2.94213867 0.02734375 C13.79930608 0.29008337 20.9299431 2.77190828 29.15234375 9.94921875 C35.51369123 17.97333428 35.67246161 25.92922974 35.515625 35.87890625 C35.50814917 37.25609 35.50246259 38.63328452 35.49847412 40.01048279 C35.48332291 43.60607131 35.44413527 47.20099632 35.3996582 50.79632568 C35.35847571 54.47675607 35.34041448 58.15729542 35.3203125 61.83789062 C35.27762767 69.03809554 35.20736762 76.23761965 35.125 83.4375 C27.865 83.4375 20.605 83.4375 13.125 83.4375 C12.795 80.1375 12.465 76.8375 12.125 73.4375 C11.465 74.345 10.805 75.2525 10.125 76.1875 C6.41005748 80.67727339 1.54864559 82.62961814 -3.875 84.4375 C-13.6528751 85.06880425 -23.02610801 84.85932072 -30.875 78.4375 C-36.93868404 72.17169316 -38.23597694 67.75442009 -38.17260742 59.08837891 C-38.0171485 52.53678189 -36.87059223 48.97734465 -32.8125 43.8125 C-25.19480526 37.65351276 -17.45565816 35.58264376 -7.875 34.4375 C-5.87752272 34.19101958 -3.88005377 33.94439122 -1.88354492 33.69018555 C0.0345883 33.44887427 1.95477131 33.22402668 3.875 33 C6.73720204 32.50461888 8.66037198 31.91627681 11.125 30.4375 C11.145625 29.179375 11.16625 27.92125 11.1875 26.625 C11.19910156 25.91730469 11.21070313 25.20960938 11.22265625 24.48046875 C11.20763217 22.23444539 11.20763217 22.23444539 10.125 19.4375 C5.31599166 17.15322104 0.35399246 16.69309482 -4.875 17.4375 C-8.36929126 18.72138732 -11.20122733 20.22691829 -13.06640625 23.578125 C-13.33324219 24.19171875 -13.60007812 24.8053125 -13.875 25.4375 C-16.25007855 25.46469556 -18.62483964 25.48443247 -21 25.5 C-21.99773438 25.51256836 -21.99773438 25.51256836 -23.015625 25.52539062 C-27.08181354 25.54532292 -30.8870092 25.22640161 -34.875 24.4375 C-34.56807336 17.07126074 -31.33489845 12.66480024 -26.015625 7.703125 C-18.14751067 1.34568862 -9.93610124 -0.11014298 0 0 Z " fill="#FDFEFB" transform="translate(826.875,145.5625)"/>
<path d="M0 0 C8.11509309 6.73842551 13.64171641 15.60585911 15.1875 26.1171875 C15.1875 31.0671875 15.1875 36.0171875 15.1875 41.1171875 C-3.2925 41.1171875 -21.7725 41.1171875 -40.8125 41.1171875 C-38.2746636 51.80061462 -38.2746636 51.80061462 -30.8125 59.1171875 C-26.4579613 61.29445685 -20.32536588 60.69954875 -15.671875 59.62109375 C-12.48226456 58.39378712 -10.93408827 57.30391234 -9.0625 54.4296875 C-6.8125 52.1171875 -6.8125 52.1171875 -4.4765625 51.76171875 C1.76471384 51.71801233 7.99617149 52.36509553 14.1875 53.1171875 C13.87348204 59.24053768 11.07077038 63.56354202 7.1875 68.1171875 C4.38990783 70.57798217 1.4829705 72.39073878 -1.8125 74.1171875 C-2.60140625 74.53097656 -3.3903125 74.94476563 -4.203125 75.37109375 C-15.48930915 80.33909199 -29.54796229 79.55409907 -40.9765625 75.4375 C-51.82558511 70.38657763 -57.72858565 61.81873816 -61.97680664 50.92016602 C-63.42867835 46.05047887 -63.44807772 41.29177771 -63.375 36.2421875 C-63.36549316 35.18515625 -63.35598633 34.128125 -63.34619141 33.0390625 C-63.13348466 25.07178093 -62.14506625 18.95326829 -57.8125 12.1171875 C-57.35488281 11.36695313 -56.89726562 10.61671875 -56.42578125 9.84375 C-51.61619623 2.75455345 -44.02974882 -3.29780472 -35.63671875 -5.4375 C-23.66527265 -7.32511391 -10.30257264 -6.89700002 0 0 Z " fill="#454545" transform="translate(497.8125,151.8828125)"/>
<path d="M0 0 C7.59 0 15.18 0 23 0 C23 6.27 23 12.54 23 19 C28.28 19 33.56 19 39 19 C39 24.94 39 30.88 39 37 C33.72 37 28.44 37 23 37 C23.09358014 42.90848268 23.19968486 48.81655781 23.31738281 54.72460938 C23.35565669 56.73431238 23.39051236 58.74408351 23.421875 60.75390625 C23.46755991 63.6434768 23.52554887 66.53257896 23.5859375 69.421875 C23.59748871 70.31992859 23.60903992 71.21798218 23.62094116 72.14324951 C23.64081085 72.98381897 23.66068054 73.82438843 23.68115234 74.69042969 C23.69447601 75.42767273 23.70779968 76.16491577 23.7215271 76.92449951 C24.0456551 79.34027433 24.67839574 80.95428945 26 83 C28.64787088 83.70373017 28.64787088 83.70373017 31.625 83.75 C33.12933594 83.83507812 33.12933594 83.83507812 34.6640625 83.921875 C35.43492187 83.94765625 36.20578125 83.9734375 37 84 C37.50377768 86.26999825 38.00290019 88.54103003 38.5 90.8125 C38.7784375 92.07707031 39.056875 93.34164062 39.34375 94.64453125 C40 98 40 98 40 101 C35.24207162 102.19190467 30.56290532 102.25558865 25.6875 102.3125 C24.46256836 102.35600586 24.46256836 102.35600586 23.21289062 102.40039062 C15.77177194 102.47746994 10.57881079 100.46419698 5.1875 95.3125 C0.30548159 87.91972927 -0.43329205 80.75631101 -0.29296875 72.05859375 C-0.28872391 71.05031021 -0.28447906 70.04202667 -0.28010559 69.00318909 C-0.26344683 65.81434284 -0.22581877 62.626152 -0.1875 59.4375 C-0.17243661 57.26237898 -0.15875112 55.08724796 -0.14648438 52.91210938 C-0.1135853 47.60782423 -0.06189243 42.30402285 0 37 C-3.63 37 -7.26 37 -11 37 C-11 31.06 -11 25.12 -11 19 C-7.37 19 -3.74 19 0 19 C0 12.73 0 6.46 0 0 Z " fill="#FBFDFA" transform="translate(877,127)"/>
<path d="M0 0 C29.82352941 0 29.82352941 0 39.16015625 8.8671875 C47.61481264 18.66812676 46.7961359 31.05309323 46.23388672 43.27050781 C45.56274979 51.10277382 42.90016216 57.66443811 37.125 63.125 C25.7990093 71.72594031 14.38177804 70 0 70 C0 46.9 0 23.8 0 0 Z " fill="#FCFCFC" transform="translate(276,139)"/>
<path d="M0 0 C3.1800926 3.43413511 3.37807454 5.89286205 3.38768005 10.50140381 C3.39575836 11.47811613 3.39575836 11.47811613 3.40399987 12.47456002 C3.41829851 14.65478218 3.41117133 16.83439879 3.40405273 19.01464844 C3.40975551 20.5785979 3.41671941 22.14254321 3.42485046 23.70648193 C3.442812 27.95464051 3.44160733 32.20259285 3.43590808 36.45077801 C3.43281907 39.99928852 3.4389058 43.54775926 3.44494683 47.09626412 C3.45900165 55.47143623 3.45742416 63.84650637 3.44604492 72.22167969 C3.43457573 80.85361513 3.44861692 89.48523944 3.4754414 98.11713386 C3.49762176 105.53301165 3.50423013 112.94879196 3.49836498 120.36470056 C3.49499821 124.79156707 3.49739125 129.21823439 3.51461601 133.64507294 C3.53011925 137.81156799 3.52609242 141.97760398 3.50731087 146.14408112 C3.50363361 147.66942763 3.50670824 149.1948084 3.51719666 150.72012329 C3.56781626 158.69341061 3.53334361 165.1694054 -1 172 C-3.03515625 174.05859375 -3.03515625 174.05859375 -5.0625 175.4375 C-5.73410156 175.91058594 -6.40570312 176.38367188 -7.09765625 176.87109375 C-10.84820448 179.09677843 -13.98130337 179.1283084 -18.25016308 179.13701439 C-20.2268077 179.1446262 -20.2268077 179.1446262 -22.24338454 179.15239179 C-23.71468044 179.15299349 -25.18597638 179.15349256 -26.65727234 179.15390015 C-28.21333562 179.15791425 -29.76939785 179.16235238 -31.32545882 179.1671797 C-35.61303002 179.1791568 -39.90058995 179.18479628 -44.18817461 179.18936086 C-48.80795747 179.1953126 -53.42772684 179.20692348 -58.04750061 179.21765137 C-69.2098952 179.24218453 -80.37229426 179.25680353 -91.53470752 179.26971143 C-94.68655781 179.27342259 -97.83840765 179.27739588 -100.9902575 179.2814641 C-120.55587943 179.30669898 -140.12150204 179.3287557 -159.68713665 179.34119225 C-164.22005402 179.34412202 -168.75297136 179.34708367 -173.28588867 179.35009766 C-174.41254607 179.35084371 -175.53920346 179.35158976 -176.70000199 179.35235842 C-194.95592507 179.36501519 -213.21175082 179.39824213 -231.46762838 179.43989949 C-250.20336825 179.48230198 -268.93905826 179.5058853 -287.67484599 179.51111281 C-298.19722926 179.51452875 -308.71946041 179.52630562 -319.24179649 179.55921555 C-328.20214855 179.58719399 -337.16231731 179.59822505 -346.12270965 179.58702008 C-350.6948947 179.58182787 -355.26669577 179.58475672 -359.83882523 179.60948563 C-364.02561401 179.63194148 -368.21174218 179.63126709 -372.39854226 179.61228175 C-373.91205291 179.60947658 -375.425608 179.61510911 -376.93904706 179.63009469 C-385.01799228 179.7051899 -391.73120741 179.68574829 -398 174 C-398.8424819 173.2374061 -398.8424819 173.2374061 -399.70198363 172.45940626 C-401 171 -401 171 -401 169 C-396 171 -396 171 -393.72730666 172.05423319 C-390.51963043 173.16658104 -387.94500141 173.25304779 -384.55059338 173.25726891 C-383.23929838 173.2637178 -381.92800339 173.27016669 -380.57697219 173.276811 C-379.12335115 173.27386878 -377.66973048 173.27073334 -376.21611023 173.26742554 C-374.6706941 173.27116189 -373.12527985 173.27576335 -371.57986861 173.28115618 C-367.33099845 173.29340353 -363.08220692 173.29312368 -358.83332312 173.29076743 C-354.25174405 173.2903597 -349.67019034 173.30139421 -345.08862305 173.31088257 C-336.11161465 173.32750304 -327.13463252 173.33299259 -318.15761002 173.33410732 C-310.86135934 173.3350573 -303.56511734 173.33916507 -296.2688694 173.34550858 C-275.58735789 173.36312383 -254.90586715 173.372347 -234.22434809 173.37084763 C-233.10915355 173.37076772 -231.99395901 173.3706878 -230.8449707 173.37060547 C-229.17013888 173.37048283 -229.17013888 173.37048283 -227.46147207 173.37035771 C-209.36411789 173.36954472 -191.26684693 173.38868482 -173.16951682 173.4168822 C-154.5919101 173.44559974 -136.01434396 173.45942312 -117.43671447 173.45769465 C-107.00493565 173.45703036 -96.57324406 173.46253979 -86.14148521 173.48405075 C-77.25987584 173.50224767 -68.37839325 173.50662213 -59.49677332 173.4930319 C-54.96513744 173.48649474 -50.43374488 173.48641202 -45.90213203 173.5037384 C-41.75249873 173.51944115 -37.60330224 173.5166343 -33.45367978 173.49917014 C-31.95369489 173.49609406 -30.45367762 173.49975557 -28.9537309 173.51089029 C-20.81527069 173.56729705 -14.98218504 173.32726874 -8 169 C-7.34 169 -6.68 169 -6 169 C-5.289999 167.68922893 -4.63960014 166.3465266 -4 165 C-3.48942551 163.94441895 -2.97885101 162.88883789 -2.45280457 161.80126953 C-0.07734964 155.34939506 -0.55962608 148.45829944 -0.56762695 141.6796875 C-0.55860014 140.13172121 -0.54827067 138.58376206 -0.53674316 137.03581238 C-0.5092549 132.85251613 -0.49989981 128.66935582 -0.49388909 124.48598099 C-0.48448407 120.10705468 -0.45827899 115.72822906 -0.43388367 111.34936523 C-0.39027342 103.06585695 -0.36169286 94.78236827 -0.33856028 86.49878025 C-0.31147922 77.06461695 -0.26756952 67.63055522 -0.22227156 58.19646454 C-0.12950372 38.7976967 -0.05778704 19.398902 0 0 Z " fill="#1C5F2F" transform="translate(1074,102)"/>
<path d="M0 0 C2.35125 0.0825 4.7025 0.165 7.125 0.25 C7.125 6.85 7.125 13.45 7.125 20.25 C4.815 20.146875 2.505 20.04375 0.125 19.9375 C-5.31098487 19.85970101 -9.8698546 20.03528297 -14.21136475 23.60620117 C-19.35203268 28.68557413 -20.34012095 34.63998331 -20.48065186 41.62719727 C-20.48249481 43.17298462 -20.48249481 43.17298462 -20.484375 44.75 C-20.50091125 45.82628662 -20.51744751 46.90257324 -20.53448486 48.01147461 C-20.58278531 51.42437551 -20.60429662 54.83683136 -20.625 58.25 C-20.65317458 60.57424092 -20.68310407 62.89846128 -20.71484375 65.22265625 C-20.79181996 70.89863871 -20.83250926 76.57323729 -20.875 82.25 C-28.135 82.25 -35.395 82.25 -42.875 82.25 C-42.875 55.52 -42.875 28.79 -42.875 1.25 C-35.615 1.25 -28.355 1.25 -20.875 1.25 C-20.545 4.88 -20.215 8.51 -19.875 12.25 C-18.575625 10.39375 -18.575625 10.39375 -17.25 8.5 C-12.68038926 1.97198465 -7.88806819 -0.39431617 0 0 Z " fill="#444444" transform="translate(430.875,145.75)"/>
<path d="M0 0 C7.59 0 15.18 0 23 0 C23 27.39 23 54.78 23 83 C15.41 83 7.82 83 0 83 C0 55.61 0 28.22 0 0 Z " fill="#494949" transform="translate(354,146)"/>
<path d="M0 0 C7.59 0 15.18 0 23 0 C23 27.06 23 54.12 23 82 C15.41 82 7.82 82 0 82 C0 54.94 0 27.88 0 0 Z " fill="#FFFFFF" transform="translate(923,147)"/>
<path d="M0 0 C6.10907467 0.32486649 10.51852628 2.50354579 15.8125 5.4375 C16.57498047 5.84548828 17.33746094 6.25347656 18.12304688 6.67382812 C23.69241675 9.69241675 23.69241675 9.69241675 26 12 C25.625 14.125 25.625 14.125 25 16 C22.69 16.66 20.38 17.32 18 18 C18.37253906 18.68707031 18.74507812 19.37414062 19.12890625 20.08203125 C19.60199219 20.98308594 20.07507812 21.88414062 20.5625 22.8125 C21.03816406 23.70582031 21.51382812 24.59914062 22.00390625 25.51953125 C23 28 23 28 22 31 C19.62534697 32.79703473 17.94299166 33.94284899 14.9375 34.125 C11.68111256 32.23419439 10.64165161 29.34193364 9 26 C9 25.34 9 24.68 9 24 C8.113125 24.845625 7.22625 25.69125 6.3125 26.5625 C4.80078125 28.00390625 4.80078125 28.00390625 3 29 C0.29296875 28.65234375 0.29296875 28.65234375 -2 28 C-2.19144603 8.28105906 -2.19144603 8.28105906 -1 1 C-0.67 0.67 -0.34 0.34 0 0 Z " fill="#5EB94B" transform="translate(1032,123)"/>
<path d="M0 0 C0.68853935 12.89098663 0.68853935 12.89098663 -1.75 16.625 C-5.44087698 20.5209257 -8.24832496 22.76089433 -13.7421875 23.23828125 C-22.25218746 23.43988973 -22.25218746 23.43988973 -26.1875 21.125 C-28.30962261 18.63699418 -28.93237764 17.49589732 -29.375 14.25 C-28.98499556 10.86996148 -28.25854253 8.84479142 -25.94140625 6.31640625 C-21.58756417 3.36420347 -16.08657127 2.90681495 -11 2 C-9.26886438 1.61286841 -7.53934933 1.21832359 -5.8125 0.8125 C-2 0 -2 0 0 0 Z " fill="#91C742" transform="translate(839,191)"/>
<path d="M0 0 C3.75212276 2.01502889 5.63644095 3.45466142 8 7 C8.47364652 11.81540624 8.49199653 14.05114955 6.25 18.375 C2.8538211 22.33720871 1.34221819 22.87010792 -3.875 23.375 C-8.17888253 23.27061479 -10.67949059 21.76709117 -14 19 C-16.68468038 14.97297943 -16.68187737 11.7315637 -16 7 C-12.19753269 0.61728702 -7.30343302 -1.16574027 0 0 Z " fill="#474747" transform="translate(370,113)"/>
<path d="M0 0 C4.91373952 2.24135487 7.51532142 5.22177197 10 10 C10 11.98 10 13.96 10 16 C-0.89 16 -11.78 16 -23 16 C-23 9.75398581 -22.77696721 8.57211821 -19 4 C-13.5966284 -1.26482361 -7.10420625 -0.88689454 0 0 Z " fill="#FCFCFC" transform="translate(481,163)"/>
<path d="M0 0 C0.99 0.66 1.98 1.32 3 2 C3.37125 1.484375 3.7425 0.96875 4.125 0.4375 C6 -1 6 -1 9.0625 -0.8125 C12 0 12 0 14 2 C14.55416667 8.09583333 14.55416667 8.09583333 12.8125 10.9375 C10.32331087 12.39667983 8.84547976 12.41641167 6 12 C3.6875 10.5 3.6875 10.5 2 9 C1.608125 9.495 1.21625 9.99 0.8125 10.5 C-1 12 -1 12 -3.5 12.375 C-6 12 -6 12 -7.8125 10.9375 C-9.67036623 7.90624457 -9.37133265 5.46577141 -9 2 C-6.74649243 -2.00623569 -4.03842373 -1.09373976 0 0 Z " fill="#F1F8EF" transform="translate(1030,241)"/>
<path d="M0 0 C3 4 3 4 3 8 C2.34 8 1.68 8 1 8 C1 56.84 1 105.68 1 156 C0.67 156 0.34 156 0 156 C0 104.52 0 53.04 0 0 Z " fill="#307F38" transform="translate(1074,102)"/>
<path d="M0 0 C1.32 0.33 2.64 0.66 4 1 C5.34262065 0.70630173 6.67696283 0.3721042 8 0 C11.11634435 0 13.11855966 0.10575989 16 1 C17 2 17 2 17.09765625 4.28515625 C17.08605469 5.20167969 17.07445312 6.11820313 17.0625 7.0625 C17.05347656 7.98160156 17.04445313 8.90070313 17.03515625 9.84765625 C17.02355469 10.55792969 17.01195312 11.26820313 17 12 C16.01 12 15.02 12 14 12 C13.67 9.36 13.34 6.72 13 4 C12.34 4 11.68 4 11 4 C10.67 6.97 10.34 9.94 10 13 C9.01 13 8.02 13 7 13 C6.67 10.03 6.34 7.06 6 4 C5.34 4 4.68 4 4 4 C3.67 6.97 3.34 9.94 3 13 C2.01 13 1.02 13 0 13 C0 8.71 0 4.42 0 0 Z " fill="#F4FAF3" transform="translate(1046,240)"/>
<path d="M0 0 C2.9375 0.9375 2.9375 0.9375 4.3125 3 C4.51875 3.639375 4.725 4.27875 4.9375 4.9375 C2.6275 4.6075 0.3175 4.2775 -2.0625 3.9375 C-2.31280977 6.35369823 -2.31280977 6.35369823 -2.0625 8.9375 C-1.0725 9.5975 -0.0825 10.2575 0.9375 10.9375 C-1.4375 11.5625 -1.4375 11.5625 -4.0625 11.9375 C-6.0625 9.9375 -6.0625 9.9375 -6.375 6.5 C-6.0625 2.9375 -6.0625 2.9375 -4.9375 0.9375 C-3.0625 -0.0625 -3.0625 -0.0625 0 0 Z " fill="#FBFDFA" transform="translate(1027.0625,240.0625)"/>
<path d="M0 0 C3 4 3 4 3 8 C2.34 8 1.68 8 1 8 C1 19.22 1 30.44 1 42 C0.67 42 0.34 42 0 42 C0 28.14 0 14.28 0 0 Z " fill="#44884E" transform="translate(1074,102)"/>
<path d="M0 0 C2.4164124 0.48328248 4.65832183 1.21944061 7 2 C7 2.99 7 3.98 7 5 C4.64561267 6.42944945 3.51967567 7.08661261 0.75 6.625 C0.1725 6.41875 -0.405 6.2125 -1 6 C-1.042721 4.33388095 -1.04063832 2.66617115 -1 1 C-0.67 0.67 -0.34 0.34 0 0 Z " fill="#67BC4F" transform="translate(1025,243)"/>
<path d="M0 0 C3.875 0.875 3.875 0.875 5 2 C5.1875 5.4375 5.1875 5.4375 5 9 C4.34 9.66 3.68 10.32 3 11 C0.875 10.625 0.875 10.625 -1 10 C-0.34 10 0.32 10 1 10 C1.11320856 4.91696314 1.11320856 4.91696314 0 0 Z " fill="#FBFDFB" transform="translate(1039,241)"/>
<path d="M0 0 C0.66 0 1.32 0 2 0 C2 0.66 2 1.32 2 2 C2.66 2.33 3.32 2.66 4 3 C3.67 5.97 3.34 8.94 3 12 C2.01 12 1.02 12 0 12 C0 8.04 0 4.08 0 0 Z " fill="#F7FBF6" transform="translate(1046,241)"/>
<path d="M0 0 C2.0625 0.4375 2.0625 0.4375 4 1 C4 2.65 4 4.3 4 6 C2.0625 6.5625 2.0625 6.5625 0 7 C-1 6 -1 6 -1.125 3.5 C-1 1 -1 1 0 0 Z " fill="#65BC52" transform="translate(1037,243)"/>
<path d="M0 0 C0.75 1.75 0.75 1.75 1 4 C-0.625 6.25 -0.625 6.25 -3 8 C-5.75 8.25 -5.75 8.25 -8 8 C-5.6875 5.5 -5.6875 5.5 -3 3 C-2.01 3 -1.02 3 0 3 C0 2.01 0 1.02 0 0 Z " fill="#DBEFD6" transform="translate(1032,245)"/>
<path d="M0 0 C2.875 0.25 2.875 0.25 6 1 C7.375 3.0625 7.375 3.0625 8 5 C4.20411134 4.45773019 2.52788007 2.79872437 0 0 Z " fill="#EAF5E7" transform="translate(1024,240)"/>
</svg>
