<?xml version="1.0" encoding="UTF-8"?>
<svg id="Layer_1" data-name="Layer 1" xmlns="http://www.w3.org/2000/svg" xmlns:xlink="http://www.w3.org/1999/xlink" viewBox="0 0 32 32">
  <defs>
    <style>
      .cls-1 {
        fill: #fff;
      }

      .cls-2 {
        fill: url(#linear-gradient);
        filter: url(#drop-shadow-1);
      }
    </style>
    <linearGradient id="linear-gradient" x1="13.75" y1="16" x2="35.2" y2="16" gradientUnits="userSpaceOnUse">
      <stop offset="0" stop-color="#bdd631"/>
      <stop offset="1" stop-color="#02ae4d"/>
    </linearGradient>
    <filter id="drop-shadow-1" x="16.1" y="12.74" width="14.1" height="6.7" filterUnits="userSpaceOnUse">
      <feOffset dx=".09" dy=".19"/>
      <feGaussianBlur result="blur" stdDeviation="0"/>
      <feFlood flood-color="#205f30" flood-opacity="1"/>
      <feComposite in2="blur" operator="in"/>
      <feComposite in="SourceGraphic"/>
    </filter>
  </defs>
  <path class="cls-2" d="M30.11,13.44v5.11c0,.39-.3.7-.67.7h-12.66c-.37,0-.67-.31-.67-.7v-5.11c0-.39.3-.7.67-.7h12.66c.37,0,.67.31.67.7Z"/>
  <g>
    <path class="cls-1" d="M18.71,14.5c-.39,0-.6.18-.6.42,0,.27.27.39.59.47l.34.08c.65.15,1.12.48,1.13,1.1,0,.69-.54,1.13-1.46,1.13s-1.49-.42-1.51-1.23h.77c.03.38.32.57.74.57s.66-.19.67-.46c0-.25-.23-.37-.64-.47l-.41-.1c-.63-.15-1.02-.47-1.02-1.02,0-.68.6-1.14,1.42-1.14s1.39.46,1.4,1.13h-.76c-.03-.3-.26-.47-.64-.47Z"/>
    <path class="cls-1" d="M20.29,16.85c0-.63.5-.82,1.06-.87.49-.05.68-.07.68-.25h0c0-.24-.15-.38-.42-.38-.28,0-.45.14-.5.32l-.72-.06c.11-.51.55-.84,1.23-.84.63,0,1.2.28,1.2.95v1.9h-.74v-.39h-.02c-.14.26-.41.44-.82.44-.54,0-.93-.28-.93-.84ZM22.03,16.63v-.3c-.09.06-.37.1-.54.13-.27.04-.46.15-.46.37s.17.33.41.33c.34,0,.59-.23.59-.52Z"/>
    <path class="cls-1" d="M24.65,15.41h-.53v1.36c0,.22.11.27.26.27.07,0,.16-.02.19-.03l.12.58c-.08.03-.22.07-.42.07-.57.02-.94-.25-.94-.8v-1.47h-.39v-.59h.39v-.67h.78v.67h.53v.59Z"/>
    <path class="cls-1" d="M24.9,14.82h.78v2.82h-.78v-2.82Z"/>
    <path class="cls-1" d="M27.68,15.67c-.04-.18-.2-.33-.47-.33-.24,0-.43.11-.43.28,0,.14.1.23.36.28l.51.1c.55.11.81.36.81.76,0,.51-.44.87-1.08.92l-.02.1c.25.04.43.19.43.45,0,.36-.35.6-.97.6v-.35c.3,0,.49-.07.49-.23,0-.15-.11-.22-.37-.25l.07-.31c-.64-.05-1.02-.37-1.09-.86l.77-.04c.05.23.23.35.51.35s.45-.12.46-.29c0-.14-.12-.23-.36-.28l-.49-.1c-.55-.11-.82-.38-.81-.8,0-.54.47-.88,1.19-.88s1.13.32,1.2.84l-.71.04Z"/>
  </g>
  <g>
    <path class="cls-1" d="M1.89,17.64v-3.75h1.34c1.13,0,1.83.7,1.83,1.87s-.69,1.88-1.84,1.88h-1.33ZM3.19,16.96c.71,0,1.08-.36,1.08-1.2s-.37-1.19-1.08-1.19h-.51v2.39h.5Z"/>
    <path class="cls-1" d="M5.35,14.07c0-.22.19-.39.42-.39s.42.18.42.39-.19.4-.42.4-.42-.18-.42-.4ZM5.37,14.82h.78v2.82h-.78v-2.82Z"/>
    <path class="cls-1" d="M6.52,14.82h.76v.49h.03c.1-.35.36-.53.68-.53.08,0,.18.01.25.03v.69c-.07-.02-.22-.04-.33-.04-.34,0-.6.24-.6.58v1.59h-.78v-2.82Z"/>
    <path class="cls-1" d="M8.13,16.25c0-.87.54-1.46,1.37-1.46.74,0,1.32.47,1.32,1.43v.21h-1.92c0,.42.25.68.64.68.26,0,.46-.11.54-.33l.72.05c-.11.52-.58.86-1.28.86-.87,0-1.4-.56-1.4-1.45ZM10.08,15.95c0-.34-.24-.58-.58-.58s-.59.26-.61.58h1.18Z"/>
    <path class="cls-1" d="M11.07,13.89h.78v2.01h.04l.9-1.07h.9l-1.04,1.22,1.1,1.6h-.91l-.77-1.13-.21.24v.89h-.78v-3.75Z"/>
    <path class="cls-1" d="M15.31,15.41h-.53v1.36c0,.22.11.27.26.27.07,0,.16-.02.19-.03l.12.58c-.08.03-.22.07-.42.07-.57.02-.94-.25-.94-.8v-1.47h-.39v-.59h.39v-.67h.78v.67h.53v.59Z"/>
  </g>
  <path class="cls-1" d="M29.97,14.08c-.04-.08-.11-.14-.2-.17l-1.07-.29c-.16-.04-.33.05-.37.21l-.29,1.07c-.04.16.05.33.21.37l1.07.29c.16.04.32-.05.37-.21l.18-.66.23.06v-.43l-.14-.24ZM29.45,14.58c-.06.02-.12.03-.18.04-.03,0-.03.02-.02.05.04.06.07.12.11.18,0,0,0,0,0,.01l.09.16s0,.01,0,.02l-.28.16s-.01,0-.02,0l-.19-.33s0,0,0,0c0,0,0-.02-.01-.02-.02-.03-.03-.03-.05,0-.04.05-.09.09-.13.14-.04.04-.09.04-.13.02-.04-.02-.06-.06-.06-.11,0-.03,0-.05,0-.08.01-.24.02-.47.03-.71,0-.07.07-.12.15-.1.03.02.08.04.12.06.2.1.39.2.59.3.05.02.07.07.07.11,0,.05-.04.09-.09.1Z"/>
  <g>
    <path class="cls-1" d="M28.08,18.41s.03-.07.07-.07.07.03.07.07c0,.04-.03.07-.07.07s-.07-.03-.07-.07Z"/>
    <path class="cls-1" d="M28.25,18.26c0-.13.08-.22.21-.22.11,0,.18.06.19.16h-.11s-.03-.07-.08-.07c-.05,0-.09.05-.09.12s.04.13.09.13c.04,0,.07-.03.08-.07h.11c0,.1-.08.16-.19.16-.13,0-.21-.09-.21-.22Z"/>
    <path class="cls-1" d="M28.67,18.26c0-.13.08-.22.21-.22s.21.09.21.22-.08.22-.21.22-.21-.09-.21-.22ZM28.96,18.26c0-.07-.03-.13-.09-.13s-.09.05-.09.13.03.13.09.13.09-.05.09-.13Z"/>
    <path class="cls-1" d="M29.12,18.05h.11v.07h0s.06-.08.12-.08.1.03.11.08h0s.07-.08.13-.08c.08,0,.13.05.13.14v.28h-.12v-.26s-.03-.07-.07-.07c-.04,0-.07.03-.07.07v.26h-.11v-.26s-.03-.07-.06-.07-.07.03-.07.08v.25h-.12v-.42Z"/>
  </g>
</svg>