<?xml version="1.0" encoding="UTF-8"?>
<svg width="640" height="380" viewBox="0 0 640 380" fill="none" xmlns="http://www.w3.org/2000/svg" role="img" aria-label="Direkt Satış logo icon">
  <defs>
    <style>
      .car { fill: #111111; }
      .accent { fill: #22C55E; }
    </style>
  </defs>

  <!-- Car silhouette (front view) -->
  <g class="car" transform="translate(20,60)">
    <path d="M20,130 C24,90 54,62 120,50 L230,50 C296,62 326,90 330,130 L330,162 C330,172 322,180 312,180 H38 C28,180 20,172 20,162 Z"/>
    <rect x="60" y="128" width="52" height="24" rx="8" ry="8"/>
    <rect x="140" y="136" width="120" height="10" rx="5"/>
    <path d="M110,52 C138,32 166,24 194,24 C222,24 250,32 278,52 L222,52 L182,52 Z"/>
  </g>

  <!-- Tag + handshake overlay -->
  <g transform="translate(210,20) rotate(-12)">
    <path class="accent" d="M10,70 L210,40 L260,90 L240,210 L30,240 L10,220 Z"/>
    <circle cx="210" cy="92" r="14" fill="#111111"/>
    <g transform="rotate(12) translate(45,120)">
      <path d="M0,0 h95 a12,12 0 0 1 12,12 v26 a12,12 0 0 1 -12,12 H0 a12,12 0 0 1 -12,-12 V12 A12,12 0 0 1 0,0 Z" fill="#F0FDF4"/>
      <path d="M90,-12 h46 a12,12 0 0 1 12,12 v22 a12,12 0 0 1 -12,12 h-46 a12,12 0 0 1 -12,-12 v-22 a12,12 0 0 1 12,-12 Z" fill="#D1FAE5"/>
      <rect x="10" y="48" width="22" height="36" rx="9" fill="#111111" opacity="0.2"/>
      <rect x="36" y="48" width="22" height="36" rx="9" fill="#111111" opacity="0.2"/>
      <rect x="62" y="48" width="22" height="36" rx="9" fill="#111111" opacity="0.2"/>
      <rect x="88" y="48" width="22" height="36" rx="9" fill="#111111" opacity="0.2"/>
    </g>
    <path d="M10,70 L210,40 L260,90 L240,210 L30,240 L10,220 Z" fill="none" stroke="#0A0A0A" stroke-width="4" opacity="0.25"/>
  </g>
</svg>
