<?xml version="1.0" encoding="UTF-8"?>
<svg version="1.1" xmlns="http://www.w3.org/2000/svg" width="214" height="218">
<path d="M0 0 C70.62 0 141.24 0 214 0 C214 71.94 214 143.88 214 218 C143.38 218 72.76 218 0 218 C0 146.06 0 74.12 0 0 Z " fill="#87C43F" transform="translate(0,0)"/>
<path d="M0 0 C3.18467891 0.5969039 6.3049759 1.36176301 9.4375 2.1875 C10.74388428 2.52914185 10.74388428 2.52914185 12.07666016 2.87768555 C13.85865021 3.34910203 15.639269 3.82573339 17.41845703 4.30761719 C19.82392429 4.95277561 22.23626885 5.56017415 24.65234375 6.1640625 C31.63268117 8.00639186 37.18343608 9.54399386 41.0546875 16.1328125 C41.36664063 16.74898437 41.67859375 17.36515625 42 18 C42.99 19.485 42.99 19.485 44 21 C44.14221065 23.60245498 44.18802932 26.09117684 44.125 28.6875 C44.11597656 29.38939453 44.10695312 30.09128906 44.09765625 30.81445312 C44.07413704 32.54311525 44.03826713 34.27160145 44 36 C41.36 35.34 38.72 34.68 36 34 C35.85304687 34.96486328 35.85304687 34.96486328 35.703125 35.94921875 C34.80778641 41.35984247 33.66372152 46.65418087 32.1875 51.9375 C31.89230469 52.99839844 31.59710938 54.05929688 31.29296875 55.15234375 C29.69907386 58.66276482 28.33539703 60.06947034 25 62 C18.83990005 62.85281977 13.36683182 60.85538037 7.5625 59 C6.64017578 58.71382812 5.71785156 58.42765625 4.76757812 58.1328125 C2.50882178 57.43060845 0.25328753 56.71952111 -2 56 C-1.72285156 56.72445312 -1.44570312 57.44890625 -1.16015625 58.1953125 C-0.61681641 59.64550781 -0.61681641 59.64550781 -0.0625 61.125 C0.29714844 62.07632813 0.65679687 63.02765625 1.02734375 64.0078125 C7.10623763 82.70834549 3.20958873 104.95091393 -4.6875 122.5 C-12.73916196 137.18606709 -25.5562902 145.5401026 -41 151 C-64.10824769 154.30117824 -87.6571448 153 -111 153 C-111 108.45 -111 63.9 -111 18 C-45.55408971 18 -45.55408971 18 -34.0625 22.8125 C-33.43915771 23.07240723 -32.81581543 23.33231445 -32.17358398 23.60009766 C-27.62227059 25.56200449 -23.8040968 27.84538314 -20 31 C-18.48870967 26.6252122 -17.05542812 22.2657604 -15.86328125 17.79296875 C-15.55716919 16.67329712 -15.55716919 16.67329712 -15.24487305 15.53100586 C-14.83810275 14.03417447 -14.44455954 12.53367263 -14.06567383 11.02954102 C-11.92180489 3.24568863 -8.63254055 -1.02662064 0 0 Z " fill="#FDFEFC" transform="translate(164,24)"/>
<path d="M0 0 C35.87931034 0 35.87931034 0 46.4375 8.625 C55.2520965 18.28432867 56.21615674 29.0652966 56.3125 41.5 C56.34150391 42.716875 56.37050781 43.93375 56.40039062 45.1875 C56.4803846 56.70663212 54.09428384 68.30295035 46 77 C31.49258189 87.98688831 19.93080725 85 0 85 C0 56.95 0 28.9 0 0 Z " fill="#83C241" transform="translate(82,67)"/>
<path d="M0 0 C70.62 0 141.24 0 214 0 C214 71.94 214 143.88 214 218 C202.78 218 191.56 218 180 218 C180 217.67 180 217.34 180 217 C180.54527344 216.85304687 181.09054688 216.70609375 181.65234375 216.5546875 C192.14294998 213.43440462 200.87318201 207.38813311 206.28515625 197.69921875 C209.18447327 191.51608747 210.11729329 185.72801648 210.15390015 178.89915466 C210.16250061 177.69805557 210.17110107 176.49695648 210.17996216 175.25946045 C210.18422211 173.95494934 210.18848206 172.65043823 210.19287109 171.30639648 C210.20078167 169.90790101 210.2090512 168.50940754 210.21765137 167.11091614 C210.24376458 162.53099487 210.25916994 157.95106497 210.2734375 153.37109375 C210.27880189 151.78830524 210.28417941 150.20551677 210.28956985 148.62272835 C210.31118435 142.03348168 210.32991692 135.44423735 210.34119225 128.85496426 C210.35740688 119.44440817 210.39054031 110.03426645 210.44759309 100.6238665 C210.48643156 93.98920247 210.50584139 87.35464861 210.51111281 80.71987396 C210.51474777 76.76616427 210.52656894 72.81289761 210.55921555 68.85931206 C210.58954205 65.13348787 210.59552206 61.4083691 210.58383179 57.68244743 C210.58350984 55.68464368 210.60781131 53.68688183 210.63320923 51.6892395 C210.5401145 38.02646078 205.50977175 25.34419083 196.3125 15.125 C189.51221562 8.82844039 181.10930344 5.88484879 171.96089172 5.85955811 C170.72310471 5.85384796 169.48531769 5.84813782 168.21002197 5.84225464 C166.84094248 5.84100936 165.47186288 5.83988425 164.1027832 5.83886719 C162.65868503 5.83423699 161.21458809 5.82921205 159.77049255 5.82382202 C155.84876305 5.81071348 151.92705065 5.80425581 148.00530267 5.79981136 C145.55286636 5.79687749 143.10043469 5.79277204 140.64800072 5.78830719 C132.96839492 5.7746349 125.28879978 5.76496753 117.60918266 5.7611053 C108.75665615 5.75662829 99.90428433 5.73909591 91.05180484 5.7101047 C84.20153086 5.68845278 77.35130029 5.67839911 70.50099248 5.67706418 C66.41336979 5.67601845 62.32589257 5.67016054 58.23830605 5.65224457 C54.38953016 5.63570355 50.54100812 5.63363741 46.69220924 5.64238358 C45.28499163 5.6431508 43.87776004 5.63885302 42.47057724 5.62892532 C30.53501881 5.54970546 21.32121757 7.21243797 12 15 C6.22241321 20.8459606 3.34783722 27.19818065 1 35 C0.67 35 0.34 35 0 35 C0 23.45 0 11.9 0 0 Z " fill="#FBFDF9" transform="translate(0,0)"/>
<path d="M0 0 C5.53183909 5.53183909 5.35291761 13.81274922 5.39547729 21.16934204 C5.38783356 22.47092255 5.38018982 23.77250305 5.37231445 25.11352539 C5.3747467 26.52057666 5.37847021 27.9276262 5.38337708 29.33467102 C5.39272965 33.13216833 5.3834089 36.92940535 5.37004495 40.72688222 C5.35867097 44.7136277 5.36284248 48.70036147 5.36479187 52.68711853 C5.36567287 59.37910173 5.3546343 66.07098326 5.33618164 72.76293945 C5.31500835 80.4854761 5.31150716 88.207864 5.3177436 95.9304238 C5.32344969 103.37937564 5.31777749 110.82827543 5.30657005 118.27721977 C5.30194143 121.43850104 5.30104265 124.59975029 5.3031559 127.76103401 C5.30504766 131.48674117 5.29686711 135.21229819 5.2810955 138.93797112 C5.27487042 140.94736664 5.27834679 142.95678498 5.28216553 144.96618652 C5.21047623 157.20610143 2.97466257 168.01593609 -5.625 177.25 C-13.31557176 184.44440584 -21.60843044 188.11103877 -32.07670593 188.14044189 C-33.29759415 188.14615204 -34.51848236 188.15186218 -35.77636719 188.15774536 C-37.12133779 188.15899056 -38.4663085 188.16011569 -39.8112793 188.16113281 C-41.23419828 188.16576454 -42.65711603 188.17078968 -44.08003235 188.17617798 C-47.93978829 188.18927131 -51.79952685 188.19574114 -55.65930152 188.20018864 C-58.07406136 188.20312481 -60.48881652 188.20723068 -62.90357399 188.21169281 C-70.46838218 188.22536074 -78.03317959 188.23503039 -85.59799927 188.2388947 C-94.31240557 188.24337143 -103.0266547 188.26090433 -111.74101323 188.2898953 C-118.4885638 188.31155896 -125.23607031 188.3216015 -131.98365527 188.32293582 C-136.00813874 188.32398066 -140.03247434 188.32981948 -144.05692101 188.34775543 C-147.84661855 188.36431702 -151.63605835 188.36635276 -155.42577934 188.35761642 C-156.81000207 188.35685031 -158.19423913 188.36113213 -159.57842636 188.37107468 C-172.54839302 188.45870874 -181.93653164 186.44262655 -192 178 C-193.87074018 176.07460898 -195.41042498 174.1724192 -197 172 C-196.505 171.01 -196.505 171.01 -196 170 C-195.57332031 170.44730469 -195.14664063 170.89460937 -194.70703125 171.35546875 C-184.93616481 180.80399733 -173.6576777 182.75151577 -160.47998047 182.61523438 C-159.07720267 182.61874591 -157.6744289 182.62441603 -156.27166748 182.63204956 C-152.5029528 182.64615684 -148.73498014 182.62937804 -144.96633673 182.60576439 C-140.99970796 182.58547763 -137.03310471 182.59154398 -133.06643677 182.59387207 C-126.41086775 182.5938187 -119.75558455 182.57418134 -113.10009766 182.54199219 C-105.43087589 182.50507792 -97.76202753 182.49632303 -90.0927285 182.5032897 C-82.67898758 182.5096172 -75.2653732 182.49880093 -67.85165787 182.47932434 C-64.71238511 182.47119936 -61.57317747 182.46843165 -58.43389511 182.47001648 C-54.73184243 182.47090213 -51.03013884 182.45649865 -47.32817841 182.43078995 C-45.33969311 182.42033443 -43.35114801 182.42427286 -41.36264038 182.42880249 C-29.13952933 182.31395734 -19.33310683 180.2013241 -10 172 C-2.78415499 164.24102687 1.12310849 155.66382131 1.12698364 145.06842041 C1.12980347 143.87974365 1.13262329 142.69106689 1.13552856 141.46636963 C1.13350433 140.17068054 1.1314801 138.87499146 1.12939453 137.54003906 C1.13075033 136.15490676 1.13253127 134.76977482 1.13470459 133.38464355 C1.13925934 129.62824779 1.13749695 125.87187952 1.1343255 122.11548328 C1.13178978 118.17722819 1.13414301 114.23897541 1.13571167 110.30072021 C1.13753067 103.68322325 1.13513499 97.06573745 1.13037109 90.44824219 C1.12493798 82.81331937 1.12668529 75.1784233 1.1321975 67.54350114 C1.13674703 60.97770658 1.13736991 54.41192004 1.13475883 47.84612441 C1.13320502 43.92960024 1.13297748 40.0130886 1.13629532 36.09656525 C1.13920048 32.40953329 1.13715005 28.7225355 1.13140106 25.0355072 C1.12946413 23.04892015 1.13240544 21.06233017 1.13552856 19.07574463 C1.12038354 12.63088737 0.86654357 6.38819855 0 0 Z " fill="#246536" transform="translate(206,30)"/>
<path d="M0 0 C6.65101452 0.24963593 11.63699023 3.06959806 17.375 6.25 C18.28894531 6.72824219 19.20289063 7.20648438 20.14453125 7.69921875 C21.01207031 8.17488281 21.87960938 8.65054688 22.7734375 9.140625 C23.56153809 9.56891602 24.34963867 9.99720703 25.16162109 10.43847656 C27.53282359 12.45258163 27.69203471 13.96880545 28 17 C25.36 17.99 22.72 18.98 20 20 C20.96250948 23.1836852 21.91219917 25.86016905 23.6875 28.6875 C24.120625 29.450625 24.55375 30.21375 25 31 C24 34 24 34 22.15234375 35.16796875 C21.42144531 35.50441406 20.69054687 35.84085938 19.9375 36.1875 C19.20402344 36.53167969 18.47054687 36.87585938 17.71484375 37.23046875 C17.14894531 37.48441406 16.58304688 37.73835938 16 38 C15.59007812 37.37351563 15.18015625 36.74703125 14.7578125 36.1015625 C14.21898437 35.28429687 13.68015625 34.46703125 13.125 33.625 C12.59132812 32.81289062 12.05765625 32.00078125 11.5078125 31.1640625 C10.04134945 28.92405904 10.04134945 28.92405904 8 27 C7.278125 27.845625 6.55625 28.69125 5.8125 29.5625 C4.884375 30.366875 3.95625 31.17125 3 32 C0.32421875 31.65234375 0.32421875 31.65234375 -2 31 C-2.02945031 27.68751922 -2.04694801 24.37507289 -2.0625 21.0625 C-2.07087891 20.13630859 -2.07925781 19.21011719 -2.08789062 18.25585938 C-2.10837054 12.41908331 -1.83422315 6.78122477 -1 1 C-0.67 0.67 -0.34 0.34 0 0 Z " fill="#69BB49" transform="translate(162,36)"/>
<path d="M0 0 C1.27052573 2.54105146 2.51887284 5.07850912 3.734375 7.64453125 C9.19672741 19.0194449 14.18154154 28.50743406 26.734375 32.97265625 C29.14562928 33.70488742 31.55670235 34.38416883 34 35 C34 35.33 34 35.66 34 36 C22.78 36 11.56 36 0 36 C0 24.12 0 12.24 0 0 Z " fill="#FCFCFB" transform="translate(0,182)"/>
<path d="M0 0 C2.97903734 2.97903734 4 5.80285329 4 10 C3.01 9.67 2.02 9.34 1 9 C0.67 6.03 0.34 3.06 0 0 Z " fill="#45884E" transform="translate(206,30)"/>
</svg>
